#!OML:ASF H:\Terrain\Patient Classification 1\Walking\liu\liu.ASF
:FULLY-SPECIFIED
:DEGREES
115
root 0.0196 15.9407 24.3783 6.85538 0.0324 0.554511
lowerback -4.48315 -3.9133 -2.66565
upperback -1.21545 -5.15045 3.02824
thorax 1.76904 -2.59368 4.28981
lowerneck -23.5177 -3.22728 -12.4075
upperneck 23.2253 -3.10803 11.0683
head 11.8978 -1.07523 5.76567
rclavicle 1.59028e-014 -5.56597e-015
rhumerus -48.974 2.41149 -78.9219
rradius 25.583
rwrist -9.62359
rhand -28.849 -20.8625
rfingers 7.12502
rthumb -2.20592 -50.8308
lclavicle 1.59028e-014 -5.56597e-015
lhumerus -20.9961 -20.9802 89.2179
lradius 42.1775
lwrist 10.5822
lhand -15.2227 -28.8631
lfingers 7.12502
lthumb 10.9499 0.831389
rfemur -37.9329 2.31019 23.9946
rtibia 43.0228
rfoot -10.8975 3.66863
rtoes -11.8939
lfemur 10.638 10.2974 -17.6585
ltibia 33.6597
lfoot 10.0077 -3.92127
ltoes -16.6198
116
root 0.0197 15.9681 24.557 6.83967 0.0324 0.16933
lowerback -4.4719 -3.84339 -2.37138
upperback -1.20935 -5.07348 3.18195
thorax 1.75037 -2.55421 4.29087
lowerneck -23.5221 -3.33063 -12.7152
upperneck 23.2112 -3.19397 11.2645
head 11.9155 -1.11672 5.88196
rclavicle 1.26228e-014 2.38542e-015
rhumerus -48.9462 3.95628 -80.1928
rradius 26.2368
rwrist -12.2473
rhand -29.4424 -18.545
rfingers 7.12502
rthumb -2.77899 -48.5066
lclavicle 1.26228e-014 2.38542e-015
lhumerus -21.4322 -20.4178 89.7888
lradius 41.447
lwrist 10.0013
lhand -15.1542 -28.8336
lfingers 7.12502
lthumb 11.016 0.857308
rfemur -36.9329 2.22256 24.583
rtibia 42.4482
rfoot -11.0908 3.72249
rtoes -11.7362
lfemur 8.35205 9.98676 -17.1947
ltibia 38.314
lfoot 10.8901 -2.16935
ltoes -11.3594
117
root 0.0197 15.9898 24.7356 6.85321 0.0324 -0.578681
lowerback -4.47608 -3.76817 -1.63927
upperback -1.24004 -5.00898 3.40681
thorax 1.67302 -2.5177 4.12024
lowerneck -23.6739 -3.34035 -12.6663
upperneck 23.1968 -3.19506 11.2295
head 11.9381 -1.11318 5.86069
rclavicle 4.77083e-015 -7.95139e-015
rhumerus -49.0374 5.1584 -81.2175
rradius 27.2409
rwrist -14.3087
rhand -29.7385 -18.8707
rfingers 7.12502
rthumb -3.06491 -48.8284
lclavicle 4.77083e-015 -7.95139e-015
lhumerus -21.9559 -19.9703 90.3264
lradius 40.8114
lwrist 9.87351
lhand -14.8431 -28.5697
lfingers 7.12502
lthumb 11.3161 1.10503
rfemur -35.9352 2.10549 25.5556
rtibia 41.9189
rfoot -11.565 3.81455
rtoes -11.2459
lfemur 6.0598 9.8056 -16.2967
ltibia 42.6975
lfoot 11.4846 -0.687223
ltoes -7.31638
118
root 0.0197 16.0097 24.9143 7.03268 0.0324 -1.32242
lowerback -4.39507 -3.60938 -0.934353
upperback -1.40296 -4.82585 3.57535
thorax 1.40112 -2.41874 3.92535
lowerneck -23.7864 -3.37454 -12.5894
upperneck 23.2207 -3.29251 11.3414
head 11.9844 -1.13304 5.87842
rclavicle -1.26725e-015 0
rhumerus -48.9717 5.43259 -81.6216
rradius 28.1741
rwrist -14.9712
rhand -29.7671 -21.0723
rfingers 7.12502
rthumb -3.09253 -51.0296
lclavicle -1.26725e-015 0
lhumerus -22.6951 -19.687 90.8208
lradius 40.3658
lwrist 9.65201
lhand -14.6232 -27.9234
lfingers 7.12502
lthumb 11.5282 1.73961
rfemur -35.2349 2.14224 26.5157
rtibia 41.4151
rfoot -11.8549 3.80232
rtoes -10.2723
lfemur 3.67139 9.88871 -15.4292
ltibia 46.591
lfoot 11.3494 0.2509
ltoes -8.36858
119
root 0.0197 16.0301 25.093 7.41544 0.0324 -2.21892
lowerback -4.13728 -3.46016 -0.306502
upperback -1.64761 -4.64527 3.84064
thorax 0.964179 -2.32158 3.8865
lowerneck -23.9937 -3.50523 -12.4737
upperneck 23.2227 -3.49516 11.3341
head 12.0535 -1.20915 5.82384
rclavicle 4.67144e-014 -1.74931e-014
rhumerus -48.5542 4.85964 -81.3252
rradius 28.8869
rwrist -14.5061
rhand -41.2341 -9.52176
rfingers 7.12502
rthumb -14.1572 -39.0194
lclavicle 4.67144e-014 -1.74931e-014
lhumerus -23.355 -19.0122 91.2612
lradius 39.7691
lwrist 8.99803
lhand -14.7446 -27.4438
lfingers 7.12502
lthumb 11.411 2.22568
rfemur -34.9309 2.61561 27.5888
rtibia 40.8287
rfoot -11.8113 3.37109
rtoes -9.75721
lfemur 0.752054 9.98486 -14.4057
ltibia 50.2921
lfoot 10.7612 1.75852
ltoes -8.38228
120
root 0.0197 16.0728 25.2717 7.4591 0.0324 -2.33921
lowerback -4.54853 -3.24501 -0.122613
upperback -1.55356 -4.37517 3.81545
thorax 1.25551 -2.18884 3.74535
lowerneck -23.7246 -3.69934 -12.6541
upperneck 22.7494 -3.7443 11.4736
head 11.8631 -1.3197 5.8415
rclavicle -3.12589e-014 -5.56597e-015
rhumerus -48.1079 4.4869 -81.1835
rradius 29.3868
rwrist -14.8447
rhand -39.1422 -11.6617
rfingers 7.12502
rthumb -12.1407 -41.2894
lclavicle -3.12589e-014 -5.56597e-015
lhumerus -23.9911 -18.2801 91.7595
lradius 39.1394
lwrist 8.52018
lhand -14.6738 -27.3011
lfingers 7.12502
lthumb 11.4794 2.36461
rfemur -33.8005 2.33425 27.8325
rtibia 40.3362
rfoot -12.2805 3.96906
rtoes -10.72
lfemur -0.889221 10.1134 -14.4239
ltibia 53.2231
lfoot 8.70794 4.05514
ltoes -6.65009
121
root 0.0197 15.923 25.4504 7.05373 0.1524 -3.98785
lowerback -2.60946 -0.102232 1.55785
upperback -0.557657 -0.210319 3.00254
thorax 0.897061 -0.104282 2.19971
lowerneck -18.1347 -4.05186 -11.0833
upperneck 18.0637 -5.11779 11.7943
head 9.27447 -1.91673 5.26313
rclavicle -6.53505e-015 1.03368e-014
rhumerus -37.2089 18.9892 -89.6591
rradius 39.7899
rwrist -20.0925
rhand -30.1949 -24.0387
rfingers 7.12502
rthumb -3.50572 -53.9896
lclavicle -6.53505e-015 1.03368e-014
lhumerus -46.3351 -13.9149 96.7412
lradius 30.1959
lwrist 7.25908
lhand -11.6462 -19.3885
lfingers 7.12502
lthumb 14.3979 10.0921
rfemur -14.3203 4.47729 30.2197
rtibia 27.5699
rfoot -17.5721 4.04349
rtoes -3.15233
lfemur -37.2769 11.458 -18.1673
ltibia 68.9099
lfoot -11.1022 14.3613
ltoes 36.8211
122
root 0.0197 15.9241 25.651 7.27907 0.1524 -4.70672
lowerback -2.11928 0.0508735 2.12519
upperback -0.750521 0.00536138 3.18043
thorax 0.418739 0.00323222 2.07042
lowerneck -18.3574 -4.10843 -10.8767
upperneck 18.1178 -5.19878 11.6231
head 9.33379 -1.95081 5.15584
rclavicle 2.93207e-015 -2.62396e-014
rhumerus -36.876 19.5487 -89.642
rradius 40.7469
rwrist -20.4105
rhand -30.0335 -23.4599
rfingers 7.12502
rthumb -3.34981 -53.4133
lclavicle 2.93207e-015 -2.62396e-014
lhumerus -47.4329 -13.2136 96.3887
lradius 30.5804
lwrist 6.69725
lhand -9.75586 -21.4719
lfingers 7.12502
lthumb 16.2187 7.86964
rfemur -13.7209 5.10407 31.0937
rtibia 27.0372
rfoot -18.0226 3.52476
rtoes -6.38621
lfemur -39.0768 11.6108 -17.621
ltibia 67.6765
lfoot -10.9232 13.9011
ltoes 21.0511
123
root 0.0197 15.9106 25.8516 7.6318 0.1524 -5.38792
lowerback -1.7577 0.229567 2.74465
upperback -1.00709 0.260326 3.22891
thorax -0.0500529 0.126942 1.77696
lowerneck -18.4038 -4.24016 -10.5832
upperneck 18.224 -5.45541 11.5497
head 9.40149 -2.05539 5.04543
rclavicle -1.2921e-014 4.45278e-014
rhumerus -36.4386 19.7482 -89.7284
rradius 41.407
rwrist -20.5814
rhand -30.0784 -24.2396
rfingers 7.12502
rthumb -3.39316 -54.1924
lclavicle -1.2921e-014 4.45278e-014
lhumerus -48.3206 -13.0698 96.1306
lradius 30.6065
lwrist 6.91567
lhand -10.6585 -20.6115
lfingers 7.12502
lthumb 15.3494 8.79883
rfemur -13.487 5.75621 31.9516
rtibia 27.0646
rfoot -18.8708 2.87669
rtoes -7.91375
lfemur -40.7912 11.3355 -17.0248
ltibia 65.8744
lfoot -10.6105 13.0945
ltoes 0.0949564
